<svg xmlns="http://www.w3.org/2000/svg" xmlns:xlink="http://www.w3.org/1999/xlink" width="1448" height="826" viewBox="0 0 1448 826"><defs><style>.a{fill:#c7eafb;stroke:#707070;}.b{clip-path:url(#a);}.c{fill:#d6ebfa;}.d{fill:#a2cccd;}.e{fill:#3b4284;}.f{fill:#fff;}.g{fill:#ca3758;}.h{fill:#47a0a4;}.ac,.i,.l,.m,.n,.s,.w,.z{fill:none;}.i{stroke:#222b2a;stroke-linecap:round;stroke-linejoin:round;stroke-width:2px;}.j{fill:#222b2a;}.k{fill:#1fa0e3;}.l,.m,.n,.p,.w{stroke:#fff;}.l,.m,.n,.p,.q,.s,.w,.z{stroke-miterlimit:10;}.l{stroke-width:0.818px;}.m{stroke-width:0.81px;}.n{stroke-width:0.651px;}.o,.p{fill:#ce6a46;}.p{stroke-width:0.473px;}.q,.s{stroke:#000;}.q,.w,.z{stroke-width:0.946px;}.r{fill:#75b4b7;}.t{fill:#98ccf1;}.u{fill:#e3e6e7;}.v{fill:#e5b08e;}.x{fill:#add6f4;}.y{fill:#8a84b7;}.z{stroke:#ca3758;}.aa{fill:#58b0e7;}.ab{fill:#615f9d;}.ad{fill:#64b4e9;}.ae{fill:#7974ad;}.af{fill:#495e9f;}</style><clipPath id="a"><rect class="a" width="1448" height="826" transform="translate(0 60.517)"/></clipPath></defs><g class="b" transform="translate(0 -60.517)"><g transform="translate(-48.043 -13.483)"><g transform="translate(43)"><rect class="c" width="1452.87" height="954.691"/><rect class="d" width="1452.87" height="1066.636" transform="translate(0 1209.803)"/></g><g transform="translate(442.719 529.783)"><g transform="translate(0 25.049)"><path class="e" d="M224.555,433.715H206.63l4.481-268.805h8.963Z" transform="translate(-113.113 -51.02)"/><path class="f" d="M208.95,226.113V119.069a2.758,2.758,0,0,1,5.244-1.149c4.434,9.522,10.083,25.917,10.083,47.869,0,36.189-9.2,60.323-9.2,60.323Z" transform="translate(-109.903 -116.351)"/><path class="f" d="M265.754,171.627l-94.2,53.522a2.72,2.72,0,0,1-3.623-3.893c6.15-8.537,17.782-21.531,37.09-32.507C236.864,170.642,262.7,166.42,262.7,166.42Z" transform="translate(-167.398 -48.989)"/><path class="f" d="M215.345,166.14l94.2,53.522a2.7,2.7,0,0,1-1.621,5.043c-10.584-.985-27.841-4.362-47.173-15.339-31.846-18.106-48.484-38-48.484-38Z" transform="translate(-105.309 -49.366)"/><ellipse class="g" cx="8.438" cy="8.303" rx="8.438" ry="8.303" transform="translate(94.042 108.096)"/></g><g transform="translate(463.009)"><path class="e" d="M418.772,423.035h-17.9l4.481-268.805h8.939Z" transform="translate(-307.353 -40.34)"/><path class="f" d="M403.18,215.433V108.389a2.758,2.758,0,0,1,5.244-1.149c4.434,9.522,10.083,25.917,10.083,47.869,0,36.189-9.2,60.323-9.2,60.323Z" transform="translate(-304.156 -105.671)"/><path class="f" d="M459.994,160.947l-94.2,53.522a2.72,2.72,0,0,1-3.623-3.893c6.15-8.537,17.782-21.531,37.09-32.507,31.846-18.106,57.685-22.328,57.685-22.328Z" transform="translate(-361.638 -38.309)"/><path class="f" d="M409.575,155.46l94.2,53.522a2.7,2.7,0,0,1-1.621,5.043c-10.583-.985-27.842-4.362-47.173-15.339-31.846-18.106-48.484-38-48.484-38Z" transform="translate(-299.563 -38.686)"/><ellipse class="g" cx="8.438" cy="8.303" rx="8.438" ry="8.303" transform="translate(94.018 108.096)"/></g><g transform="translate(755.281 43.482)"><path class="e" d="M548.045,435.215H530.12l4.481-268.8h8.963Z" transform="translate(-420.782 -67.436)"/><path class="f" d="M595.805,177.571H487.014a2.7,2.7,0,0,1-1.168-5.16c9.678-4.362,26.34-9.921,48.651-9.921,36.781,0,61.309,9.053,61.309,9.053Z" transform="translate(-484.251 -72.71)"/><path class="f" d="M539.612,169.21l54.4,92.69a2.726,2.726,0,0,1-3.957,3.565c-8.677-6.051-21.882-17.5-33.038-36.494-18.4-31.334-22.693-56.758-22.693-56.758Z" transform="translate(-414.971 -63.669)"/><path class="f" d="M534.04,218.259l54.4-92.69a2.756,2.756,0,0,1,5.125,1.595c-1,10.414-4.434,27.394-15.589,46.415-18.4,31.334-38.616,47.705-38.616,47.705Z" transform="translate(-415.358 -124.211)"/><ellipse class="g" cx="8.438" cy="8.303" rx="8.438" ry="8.303" transform="translate(109.862 93.181)"/></g></g><g transform="translate(201.303 697.068)"><path class="h" d="M1337.964,490.795c-9.273-54.929-52.8-101.79-95.61-138.214s-97.016-54.929-153.582-56.055C1013,187.982,881.487,189.764,829.451,205.643c-74.729-39.567-139.4-36.565-232.148-.727-77.8-34.313-169.123-8.537-217.417,59.6C274.813,266.365,243.705,344.044,231.977,372.8c-43.312-6.567-70.819,22.914-74.085,63.161C109.026,422,66.6,468.654,66.12,488.027V1066.94h1271.8V490.795Z" transform="translate(-66.12 -176.996)"/></g><g transform="translate(552.612 791.948)"><g transform="translate(0 111.781)"><line class="i" x1="17.234" y2="33.914" transform="translate(0 33.914)"/><path class="j" d="M213.5,265.11l17.234,33.914h33.825l-17.21-33.914Z" transform="translate(-213.5 -265.11)"/><path class="k" d="M220.73,279.57l17.234,33.914h33.848L254.555,279.57Z" transform="translate(-203.496 -245.656)"/><path class="e" d="M227.7,265.11l17.21,33.914h34.778L262.454,265.11Z" transform="translate(-193.851 -265.11)"/><path class="j" d="M234.92,279.57l17.258,33.914h34.754L269.7,279.57Z" transform="translate(-183.861 -245.656)"/><path class="j" d="M242.28,265.11l17.234,33.914h34.778l-17.21-33.914Z" transform="translate(-173.677 -265.11)"/><path class="e" d="M249.51,279.57l17.234,33.914h34.778L284.288,279.57Z" transform="translate(-163.673 -245.656)"/><path class="k" d="M256.88,265.11l17.21,33.914h34.468L291.324,265.11Z" transform="translate(-153.475 -265.11)"/><path class="j" d="M264.1,279.57l17.234,33.914H315.8l-17.21-33.914H264.1Z" transform="translate(-143.485 -245.656)"/></g><g transform="translate(123.904)"><line class="i" x1="17.234" y2="33.914" transform="translate(0 33.914)"/><path class="j" d="M265.48,217.45l17.234,33.914h33.825L299.3,217.45Z" transform="translate(-265.48 -217.45)"/><path class="k" d="M272.71,231.91l17.21,33.914h33.848L306.535,231.91Z" transform="translate(-255.476 -197.996)"/><path class="h" d="M279.67,217.45,296.9,251.364h34.778L314.448,217.45Z" transform="translate(-245.845 -217.45)"/><path class="j" d="M286.9,231.91l17.234,33.914h34.778L321.678,231.91Z" transform="translate(-235.841 -197.996)"/><path class="j" d="M294.26,217.45l17.234,33.914h34.778l-17.21-33.914Z" transform="translate(-225.657 -217.45)"/><path class="h" d="M301.49,231.91l17.234,33.914H353.5L336.268,231.91Z" transform="translate(-215.653 -197.996)"/><path class="k" d="M308.86,217.45l17.21,33.914h34.468L343.3,217.45Z" transform="translate(-205.455 -217.45)"/><path class="j" d="M316.08,231.91l17.234,33.914h34.468L350.548,231.91H316.08Z" transform="translate(-195.465 -197.996)"/></g><g transform="translate(180.779 195.699)"><line class="i" x1="17.234" y2="33.914" transform="translate(0 33.914)"/><path class="j" d="M289.34,300.89,306.574,334.8H340.4L323.165,300.89Z" transform="translate(-289.34 -300.89)"/><path class="k" d="M296.57,315.35l17.21,33.914h33.848L330.395,315.35Z" transform="translate(-279.336 -281.436)"/><path class="h" d="M303.53,300.89,320.764,334.8h34.778L338.308,300.89Z" transform="translate(-269.705 -300.89)"/><path class="j" d="M310.76,315.35l17.234,33.914h34.778L345.538,315.35Z" transform="translate(-259.701 -281.436)"/><path class="j" d="M318.12,300.89,335.354,334.8h34.778L352.9,300.89Z" transform="translate(-249.517 -300.89)"/><path class="h" d="M325.35,315.35l17.234,33.914h34.778L360.128,315.35Z" transform="translate(-239.513 -281.436)"/><path class="k" d="M332.71,300.89,349.944,334.8h34.468L367.178,300.89Z" transform="translate(-229.329 -300.89)"/><path class="j" d="M339.94,315.35l17.234,33.914h34.468L374.408,315.35H339.94Z" transform="translate(-219.325 -281.436)"/></g></g><g transform="translate(545.938 695.224)"><g transform="translate(479.981 302.626)"><ellipse class="e" cx="40.904" cy="40.247" rx="40.904" ry="40.247" transform="translate(0 0.023)"/><line class="l" y1="100.641" transform="translate(40.904)"/><line class="l" y1="38.816" x2="39.474" transform="translate(40.904 29.622)"/><line class="l" x1="28.628" y1="28.192" transform="translate(12.276 12.079)"/></g><g transform="translate(19.57 287.545)"><ellipse class="e" cx="40.904" cy="40.247" rx="40.904" ry="40.247" transform="translate(0 0.023)"/><line class="l" y1="100.641" transform="translate(40.904)"/><line class="l" y1="38.84" x2="39.474" transform="translate(40.904 29.599)"/><line class="l" x1="28.628" y1="28.192" transform="translate(12.276 12.079)"/></g><g transform="translate(268.285)"><ellipse class="e" cx="40.499" cy="39.848" rx="40.499" ry="39.848"/><line class="m" y1="99.632" transform="translate(40.499 0)"/><line class="m" y1="38.441" x2="39.069" transform="translate(40.499 29.317)"/><line class="m" x1="28.342" y1="27.887" transform="translate(12.157 11.961)"/></g><g transform="translate(0 81.854)"><ellipse class="e" cx="32.561" cy="32.038" rx="32.561" ry="32.038"/><line class="n" y1="80.095" transform="translate(32.561)"/><line class="n" y1="30.912" x2="31.417" transform="translate(32.561 23.548)"/><line class="n" x1="22.788" y1="22.422" transform="translate(9.773 9.616)"/></g><g transform="translate(490.827 18.927)"><ellipse class="e" cx="32.561" cy="32.038" rx="32.561" ry="32.038"/><line class="n" y1="80.072" transform="translate(32.561)"/><line class="n" y1="30.912" x2="31.417" transform="translate(32.561 23.548)"/><line class="n" x1="22.788" y1="22.422" transform="translate(9.773 9.616)"/></g></g><g transform="translate(94.037 705.333)"><g transform="translate(52.419)"><g transform="translate(0 0.352)"><path class="o" d="M232.614,502.29l.858.141a447.936,447.936,0,0,1-14.231,62.739H179.91V502.29Z" transform="translate(146.178 252.034)"/><path class="o" d="M245.366,457.933H179.91v-62.9h63.907C244.627,416.092,245.1,437.083,245.366,457.933Z" transform="translate(146.178 107.728)"/><path class="o" d="M179.91,421.85h65.456c-.6,19.748-1,40.927-1.692,62.88H179.91Z" transform="translate(146.178 143.811)"/><path class="o" d="M243.817,431.113H179.91v-62.9h60.5C241.934,389.2,243.03,410.192,243.817,431.113Z" transform="translate(146.178 71.644)"/><path class="o" d="M179.91,448.66h63.764c-.644,20.522-1.573,41.7-3.146,62.927l-.286-.023H179.934C179.91,491.37,179.91,470.308,179.91,448.66Z" transform="translate(146.178 179.881)"/><path class="o" d="M240.241,475.493l.286.023c-1.549,21.132-3.79,42.358-7.056,63l-.858-.141h-52.7v-62.9C202.007,475.493,222.483,475.493,240.241,475.493Z" transform="translate(146.178 215.951)"/><path class="o" d="M240.408,404.3h-60.5v-62.88h54.563l.215-.023Q238.227,372.781,240.408,404.3Z" transform="translate(146.178 35.574)"/><path class="o" d="M234.7,377.5l-.215.023H179.92v-62.9h45.934l.334-.047Q231.229,345.881,234.7,377.5Z" transform="translate(146.192 -0.522)"/><path class="o" d="M226.178,350.64l-.334.047H179.91v-62.9h34.206l.1-.023Q221.112,319,226.178,350.64Z" transform="translate(146.178 -36.592)"/><path class="o" d="M179.91,529.1h39.331c-7.151,23.008-16.471,44.328-28.628,62.9H179.934C179.91,579.925,179.91,558.018,179.91,529.1Z" transform="translate(146.178 288.104)"/><path class="o" d="M214.211,323.816l-.1.023H179.91V260.96h18.14C204.176,281.693,209.516,302.661,214.211,323.816Z" transform="translate(146.178 -72.649)"/><path class="o" d="M198.05,292.264H179.91V237.71Q189.922,264.623,198.05,292.264Z" transform="translate(146.178 -103.929)"/><path class="o" d="M217.616,529.1V592H152.66V529.1Z" transform="translate(108.472 288.104)"/><path class="o" d="M217.616,502.29v62.88H152.66V502.29Z" transform="translate(108.472 252.034)"/><path class="o" d="M217.616,475.48v62.9H152.66v-62.9Z" transform="translate(108.472 215.964)"/><path class="o" d="M217.616,448.66v62.9H152.66v-62.9Z" transform="translate(108.472 179.881)"/><path class="o" d="M217.616,421.85v62.88H152.66V421.85Z" transform="translate(108.472 143.811)"/><path class="o" d="M217.616,395.03v62.9H152.66v-62.9Z" transform="translate(108.472 107.728)"/><path class="o" d="M217.616,368.22v62.9H152.66v-62.9Z" transform="translate(108.472 71.658)"/><path class="o" d="M217.616,341.41v62.88H152.66V341.41Z" transform="translate(108.472 35.588)"/><path class="o" d="M217.616,314.59v62.9H152.66v-62.9Z" transform="translate(108.472 -0.495)"/><path class="o" d="M217.616,287.77v62.9H152.66v-62.9Z" transform="translate(108.472 -36.579)"/><path class="o" d="M217.616,260.97v62.88H152.66V260.97Z" transform="translate(108.472 -72.635)"/><path class="o" d="M217.616,242.5v54.554H152.66v-62.9h61.809C215.518,236.918,216.591,239.685,217.616,242.5Z" transform="translate(108.472 -108.719)"/><path class="o" d="M214.469,270.354H152.66v-62.9h29.462l.31-.211h.024C194.184,224.619,205.006,245.657,214.469,270.354Z" transform="translate(108.472 -144.923)"/><path class="o" d="M182.442,227.206l-.31.211H152.67V192.4A185.456,185.456,0,0,1,182.442,227.206Z" transform="translate(108.486 -164.889)"/><path class="o" d="M190.366,529.1V592H125.41V529.1Z" transform="translate(70.766 288.104)"/><path class="o" d="M190.366,502.29v62.88H125.41V502.29Z" transform="translate(70.766 252.034)"/><path class="o" d="M190.366,475.48v62.9H125.41v-62.9Z" transform="translate(70.766 215.964)"/><path class="o" d="M190.366,448.66v62.9H125.41v-62.9Z" transform="translate(70.766 179.881)"/><path class="o" d="M190.366,421.85v62.88H125.41V421.85Z" transform="translate(70.766 143.811)"/><path class="o" d="M190.366,395.03v62.9H125.41v-62.9Z" transform="translate(70.766 107.728)"/><path class="o" d="M190.366,368.22v62.9H125.41v-62.9Z" transform="translate(70.766 71.658)"/><path class="o" d="M190.366,341.41v62.88H125.41V341.41Z" transform="translate(70.766 35.588)"/><path class="o" d="M190.366,314.59v62.9H125.41v-62.9Z" transform="translate(70.766 -0.495)"/><path class="o" d="M190.366,287.77v62.9H125.41v-62.9Z" transform="translate(70.766 -36.579)"/><path class="o" d="M190.366,260.97v62.88H125.41V260.97Z" transform="translate(70.766 -72.635)"/><path class="o" d="M190.366,234.15v62.9H125.41v-62.9Z" transform="translate(70.766 -108.719)"/><path class="o" d="M190.366,207.33v62.9H125.41v-62.9Z" transform="translate(70.766 -144.802)"/><path class="o" d="M190.366,208.2v35.017H125.41V180.67C147.578,180.67,169.747,189.817,190.366,208.2Z" transform="translate(70.766 -180.67)"/><path class="o" d="M163.116,529.1V592H98.16V529.1Z" transform="translate(33.061 288.104)"/><path class="o" d="M163.116,502.29v62.88H98.16V502.29Z" transform="translate(33.061 252.034)"/><path class="o" d="M163.116,475.48v62.9H98.16v-62.9Z" transform="translate(33.061 215.964)"/><path class="o" d="M163.116,448.66v62.9H98.16v-62.9Z" transform="translate(33.061 179.881)"/><path class="o" d="M163.116,421.85v62.88H98.16V421.85Z" transform="translate(33.061 143.811)"/><path class="o" d="M163.116,395.03v62.9H98.16v-62.9Z" transform="translate(33.061 107.728)"/><path class="o" d="M163.116,368.22v62.9H98.16v-62.9Z" transform="translate(33.061 71.658)"/><path class="o" d="M163.116,341.41v62.88H98.16V341.41Z" transform="translate(33.061 35.588)"/><path class="o" d="M163.116,314.59v62.9H98.16v-62.9Z" transform="translate(33.061 -0.495)"/><path class="o" d="M163.116,287.77v62.9H98.16v-62.9Z" transform="translate(33.061 -36.579)"/><path class="o" d="M163.116,260.97v62.88H98.16V260.97Z" transform="translate(33.061 -72.635)"/><path class="o" d="M163.116,234.15v62.9H98.16v-62.9Z" transform="translate(33.061 -108.719)"/><path class="o" d="M163.116,207.33v62.9H98.16v-62.9Z" transform="translate(33.061 -144.802)"/><path class="o" d="M163.116,180.67v62.551H98.16V208.2C118.755,189.84,140.923,180.67,163.116,180.67Z" transform="translate(33.061 -180.67)"/><path class="o" d="M134.662,529.1V592H71.78V529.1Z" transform="translate(-3.441 288.104)"/><path class="o" d="M134.648,502.29v62.88H71.79V502.29Z" transform="translate(-3.427 252.034)"/><path class="o" d="M134.662,475.48v62.9H71.78v-62.9Z" transform="translate(-3.441 215.964)"/><path class="o" d="M134.648,448.66v62.9H71.79v-62.9Z" transform="translate(-3.427 179.881)"/><path class="o" d="M134.648,421.85v62.88H71.79V421.85Z" transform="translate(-3.427 143.811)"/><rect class="o" width="62.858" height="62.903" transform="translate(68.339 502.758)"/><rect class="o" width="62.858" height="62.903" transform="translate(68.339 439.878)"/><rect class="o" width="62.858" height="62.88" transform="translate(68.339 376.998)"/><path class="o" d="M134.662,314.59v62.9H71.78v-62.9Z" transform="translate(-3.441 -0.495)"/><path class="o" d="M134.648,287.77v62.9H71.79v-62.9Z" transform="translate(-3.427 -36.579)"/><path class="o" d="M134.648,260.97v62.88H71.79V260.97Z" transform="translate(-3.427 -72.635)"/><path class="o" d="M134.662,234.15v62.9H71.8v-60.3l-.024-.023c.334-.868.715-1.736,1.073-2.58Z" transform="translate(-3.441 -108.719)"/><path class="o" d="M134.039,207.451v62.9H72.23c9.463-24.673,20.261-45.735,31.989-63.114l.334.211Z" transform="translate(-2.819 -144.923)"/><path class="o" d="M115.456,192.41v35.017H85.994l-.334-.211A183.908,183.908,0,0,1,115.456,192.41Z" transform="translate(15.765 -164.875)"/><path class="o" d="M95.317,529.1V592H82.54c-11.06-17-20.261-38.3-27.77-62.9Z" transform="translate(-26.978 288.104)"/><path class="o" d="M103.813,502.29v62.88H63.242A513.1,513.1,0,0,1,48.63,502.36l.381-.07Z" transform="translate(-35.474 252.034)"/><path class="o" d="M108.545,475.48v62.9H53.767l-.381.07c-3.433-19.889-6.15-40.95-8.176-62.88l.953-.094Z" transform="translate(-40.206 215.964)"/><path class="o" d="M110.9,448.66v62.9H48.492l-.953.094c-1.907-20.311-3.242-41.373-4.028-62.95l1.025-.047Z" transform="translate(-42.558 179.881)"/><path class="o" d="M111.45,421.85v62.88H45.064l-1.025.047c-.763-20.592-1.049-41.631-.882-62.927H111.45Z" transform="translate(-43.111 143.811)"/><path class="o" d="M111.409,395.043v62.9H43.14c.167-20.8.763-41.865,1.764-62.927l.238.024Z" transform="translate(-43.07 107.714)"/><path class="o" d="M110.385,368.22v62.9H44.118l-.238-.023c.977-21.015,2.312-42.053,4.052-62.88Z" transform="translate(-42.046 71.658)"/><path class="o" d="M108.033,341.41v62.88H45.58c1.764-21.226,3.909-42.264,6.364-62.88Z" transform="translate(-39.694 35.588)"/><path class="o" d="M104.338,314.59v62.9H48.25c2.574-21.507,5.482-42.522,8.748-62.9Z" transform="translate(-36 -0.495)"/><path class="o" d="M99.26,287.77v62.9H51.92c3.48-21.859,7.318-42.921,11.513-62.9Z" transform="translate(-30.921 -36.579)"/><path class="o" d="M92.577,260.983v62.88H56.75c4.672-22.469,9.8-43.6,15.232-62.9l.071.023Z" transform="translate(-24.238 -72.649)"/><path class="o" d="M83.749,235.26v60.3H63.2l-.072-.023c6.436-22.891,13.349-43.2,20.619-60.276Z" transform="translate(-15.41 -107.225)"/></g><g transform="translate(0.785)"><path class="p" d="M274.636,207.33H85.8" transform="translate(15.173 -144.45)"/><path class="p" d="M325.76,234.15H72.23" transform="translate(-3.603 -108.367)"/><path class="p" d="M63.17,260.97H359.892" transform="translate(-16.14 -72.283)"/><path class="p" d="M56.55,287.77H384.785" transform="translate(-25.3 -36.227)"/><path class="p" d="M51.64,314.59H403.306" transform="translate(-32.094 -0.144)"/><path class="p" d="M48.01,341.41H416.982" transform="translate(-37.117 35.94)"/><path class="p" d="M45.5,368.22H426.462" transform="translate(-40.59 72.01)"/><path class="p" d="M43.98,395.03H432.165" transform="translate(-42.693 108.079)"/><path class="p" d="M43.44,421.85H434.2" transform="translate(-43.44 144.163)"/><path class="p" d="M43.94,448.66h388.4" transform="translate(-42.748 180.233)"/><path class="p" d="M45.6,475.48H426.038" transform="translate(-40.451 216.316)"/><path class="p" d="M48.8,502.29H414.03" transform="translate(-36.023 252.386)"/><path class="p" d="M71.78,987.332V235.26" transform="translate(-4.226 -106.873)"/><path class="p" d="M98.16,192.28v852.877" transform="translate(32.276 -164.698)"/><path class="p" d="M125.41,180.52v880.529" transform="translate(69.981 -180.52)"/><path class="p" d="M152.66,192.28v852.948" transform="translate(107.687 -164.698)"/><path class="p" d="M179.91,984.332V237.49" transform="translate(145.393 -103.873)"/><path class="p" d="M54.39,529.1H392.97" transform="translate(-28.289 288.456)"/></g></g><ellipse class="f" cx="137.182" cy="134.977" rx="137.182" ry="134.977" transform="translate(0 142.459)"/></g><g transform="translate(896.603 768.612)"><path class="j" d="M358.17,244.61H944.262V743.534h-22.8V302.452c0-24.776-20.42-44.845-45.578-44.845h0c-25.181,0-45.578,20.092-45.578,44.845v441.1h-22.8v-441.1c0-24.776-20.42-44.845-45.578-44.845h0c-25.181,0-45.578,20.092-45.578,44.845v441.1h-22.8v-441.1c0-24.776-20.42-44.845-45.578-44.845h0c-25.181,0-45.578,20.092-45.578,44.845v441.1h-22.8v-441.1c0-24.776-20.42-44.845-45.578-44.845h0c-25.181,0-45.578,20.092-45.578,44.845v441.1H470.212v-441.1c0-24.776-20.42-44.845-45.578-44.845h0c-25.181,0-45.578,20.092-45.578,44.845V449.64H358.263Z" transform="translate(-357.33 -159.397)"/><path class="q" d="M399.2,207.5h0c-22.66,0-41.027,18.071-41.027,40.368v44.845h82.054V247.868C440.224,225.571,421.857,207.5,399.2,207.5Z" transform="translate(-357.33 -207.5)"/><g transform="translate(0 39.105)"><path class="f" d="M694.665,257.95a10.592,10.592,0,0,1-1.61,5.58,10.749,10.749,0,0,1-4.341,3.9l-.817.413a11.012,11.012,0,0,1-4.807,1.125H450.72V246.744h93.046a60.559,60.559,0,0,0,46.978-22.2h18.063a22.4,22.4,0,0,0,22.59,22.2h53.442l3.547,1.607A10.517,10.517,0,0,1,694.665,257.95Z" transform="translate(-233.893 -224.517)"/><path class="k" d="M594.5,246.734H541.061a22.4,22.4,0,0,1-22.591-22.2h1.564a118.148,118.148,0,0,1,48.728,10.517Z" transform="translate(-143.533 -224.53)"/><path class="k" d="M450.72,224.53H590.767a60.594,60.594,0,0,1-46.978,22.2H450.743v-22.2Z" transform="translate(-233.893 -224.53)"/><path d="M455.881,244.233v17.773H446.85V226.46h9.031Z" transform="translate(-239.055 -222.028)"/><path class="f" d="M565.605,251.973v4.455H357.81V234.2h207.8Z" transform="translate(-357.81 -211.995)"/><path class="k" d="M565.605,228.962v17.773H357.81v-22.2h207.8Z" transform="translate(-357.81 -224.53)"/><rect width="57.223" height="4.018" transform="translate(370.363 40.414)"/><rect width="57.223" height="4.018" transform="translate(231.366 40.414)"/><rect width="63.244" height="4.455" transform="translate(133.513 39.977)"/><rect width="63.244" height="4.455" transform="translate(7.025 39.977)"/></g></g><g transform="translate(403.965 988.093)"><g transform="translate(0 188.945)"><rect class="r" width="262.945" height="355.725" transform="translate(0 129.372)"/><rect class="h" width="322.228" height="355.725" transform="translate(262.922 129.372)"/><path class="s" d="M305.4,499.569H272.53V463.99a16.294,16.294,0,0,1,16.424-16.16h0a16.294,16.294,0,0,1,16.424,16.16v35.58Z" transform="translate(16.827 -292.589)"/><path class="s" d="M330.221,499.569H297.35V463.99a16.294,16.294,0,0,1,16.424-16.16h0A16.294,16.294,0,0,1,330.2,463.99v35.58Z" transform="translate(51.17 -292.589)"/><path class="s" d="M355.041,499.569H322.17V463.99a16.294,16.294,0,0,1,16.424-16.16h0a16.294,16.294,0,0,1,16.424,16.16v35.58Z" transform="translate(85.513 -292.589)"/><path class="s" d="M379.861,499.569H346.99V463.99a16.294,16.294,0,0,1,16.424-16.16h0a16.294,16.294,0,0,1,16.424,16.16v35.58Z" transform="translate(119.857 -292.589)"/><path class="s" d="M404.681,499.569H371.81V463.99a16.294,16.294,0,0,1,16.424-16.16h0a16.294,16.294,0,0,1,16.424,16.16v35.58Z" transform="translate(154.2 -292.589)"/><path class="s" d="M305.4,535.419H272.53V499.84a16.294,16.294,0,0,1,16.424-16.16h0a16.294,16.294,0,0,1,16.424,16.16v35.579Z" transform="translate(16.827 -244.356)"/><path class="s" d="M330.221,535.419H297.35V499.84a16.294,16.294,0,0,1,16.424-16.16h0A16.294,16.294,0,0,1,330.2,499.84v35.579Z" transform="translate(51.17 -244.356)"/><path class="s" d="M355.041,535.419H322.17V499.84a16.294,16.294,0,0,1,16.424-16.16h0a16.294,16.294,0,0,1,16.424,16.16v35.579Z" transform="translate(85.513 -244.356)"/><path class="s" d="M379.861,535.419H346.99V499.84a16.294,16.294,0,0,1,16.424-16.16h0a16.294,16.294,0,0,1,16.424,16.16v35.579Z" transform="translate(119.857 -244.356)"/><path class="s" d="M404.681,535.419H371.81V499.84a16.294,16.294,0,0,1,16.424-16.16h0a16.294,16.294,0,0,1,16.424,16.16v35.579Z" transform="translate(154.2 -244.356)"/><path class="s" d="M305.4,571.269H272.53V535.69a16.294,16.294,0,0,1,16.424-16.16h0a16.294,16.294,0,0,1,16.424,16.16v35.58Z" transform="translate(16.827 -196.124)"/><path class="s" d="M330.221,571.269H297.35V535.69a16.294,16.294,0,0,1,16.424-16.16h0A16.294,16.294,0,0,1,330.2,535.69v35.58Z" transform="translate(51.17 -196.124)"/><path class="s" d="M355.011,571.269H322.14V535.69a16.294,16.294,0,0,1,16.424-16.16h0a16.294,16.294,0,0,1,16.424,16.16v35.58Z" transform="translate(85.472 -196.124)"/><path class="s" d="M379.861,571.269H346.99V535.69a16.294,16.294,0,0,1,16.424-16.16h0a16.294,16.294,0,0,1,16.424,16.16v35.58Z" transform="translate(119.857 -196.124)"/><path class="s" d="M195.081,571.269H162.21V535.69a16.294,16.294,0,0,1,16.424-16.16h0a16.294,16.294,0,0,1,16.424,16.16v35.58Z" transform="translate(-135.822 -196.124)"/><path d="M269.206,681.244H187.04V559.964c0-22.328,18.4-40.434,41.095-40.434h0c22.693,0,41.095,18.106,41.095,40.434v121.28Z" transform="translate(-101.465 -196.124)"/><path class="s" d="M269.541,571.269H236.67V535.69a16.294,16.294,0,0,1,16.424-16.16h0a16.294,16.294,0,0,1,16.424,16.16v35.58Z" transform="translate(-32.792 -196.124)"/><path class="s" d="M195.081,535.419H162.21V499.84a16.294,16.294,0,0,1,16.424-16.16h0a16.294,16.294,0,0,1,16.424,16.16v35.579Z" transform="translate(-135.822 -244.356)"/><path class="s" d="M219.9,535.419H187.03V499.84a16.294,16.294,0,0,1,16.424-16.16h0a16.294,16.294,0,0,1,16.424,16.16v35.579Z" transform="translate(-101.479 -244.356)"/><path class="s" d="M244.721,535.419H211.85V499.84a16.294,16.294,0,0,1,16.424-16.16h0A16.294,16.294,0,0,1,244.7,499.84v35.579Z" transform="translate(-67.136 -244.356)"/><path class="s" d="M269.541,535.419H236.67V499.84a16.294,16.294,0,0,1,16.424-16.16h0a16.294,16.294,0,0,1,16.424,16.16v35.579Z" transform="translate(-32.792 -244.356)"/><path class="s" d="M195.081,499.569H162.21V463.99a16.294,16.294,0,0,1,16.424-16.16h0a16.294,16.294,0,0,1,16.424,16.16v35.58Z" transform="translate(-135.822 -292.589)"/><path class="s" d="M219.9,499.569H187.03V463.99a16.294,16.294,0,0,1,16.424-16.16h0a16.294,16.294,0,0,1,16.424,16.16v35.58Z" transform="translate(-101.479 -292.589)"/><path class="s" d="M244.721,499.569H211.85V463.99a16.294,16.294,0,0,1,16.424-16.16h0A16.294,16.294,0,0,1,244.7,463.99v35.58Z" transform="translate(-67.136 -292.589)"/><path class="s" d="M269.541,499.569H236.67V463.99a16.294,16.294,0,0,1,16.424-16.16h0a16.294,16.294,0,0,1,16.424,16.16v35.58Z" transform="translate(-32.792 -292.589)"/><path class="s" d="M404.681,571.269H371.81V535.69a16.294,16.294,0,0,1,16.424-16.16h0a16.294,16.294,0,0,1,16.424,16.16v35.58Z" transform="translate(154.2 -196.124)"/><path class="s" d="M305.4,604.369H272.53V568.79a16.294,16.294,0,0,1,16.424-16.16h0a16.294,16.294,0,0,1,16.424,16.16v35.58Z" transform="translate(16.827 -151.592)"/><path class="s" d="M330.221,604.369H297.35V568.79a16.294,16.294,0,0,1,16.424-16.16h0A16.294,16.294,0,0,1,330.2,568.79v35.58Z" transform="translate(51.17 -151.592)"/><path class="s" d="M355.041,604.369H322.17V568.79a16.294,16.294,0,0,1,16.424-16.16h0a16.294,16.294,0,0,1,16.424,16.16v35.58Z" transform="translate(85.513 -151.592)"/><path class="s" d="M379.861,604.369H346.99V568.79a16.294,16.294,0,0,1,16.424-16.16h0a16.294,16.294,0,0,1,16.424,16.16v35.58Z" transform="translate(119.857 -151.592)"/><path class="s" d="M195.081,604.369H162.21V568.79a16.294,16.294,0,0,1,16.424-16.16h0a16.294,16.294,0,0,1,16.424,16.16v35.58Z" transform="translate(-135.822 -151.592)"/><path class="s" d="M269.541,604.369H236.67V568.79a16.294,16.294,0,0,1,16.424-16.16h0a16.294,16.294,0,0,1,16.424,16.16v35.58Z" transform="translate(-32.792 -151.592)"/><path class="s" d="M404.681,604.369H371.81V568.79a16.294,16.294,0,0,1,16.424-16.16h0a16.294,16.294,0,0,1,16.424,16.16v35.58Z" transform="translate(154.2 -151.592)"/><path class="e" d="M282.72,381.64,414.062,511.012H151.14L282.72,381.64,414.062,511.012" transform="translate(-151.14 -381.64)"/><path class="o" d="M659.933,511.012,528.568,381.64H206.34L337.682,511.012Z" transform="translate(-74.76 -381.64)"/><g transform="translate(151.317 6.473)"><path class="e" d="M454.182,456.293H380.216L340.79,417.5h73.942Z" transform="translate(-40.039 -339.868)"/><path class="h" d="M395.446,398.19l46.005,45.289H367.509L321.48,398.19Z" transform="translate(-66.758 -365.847)"/><path class="e" d="M423.139,456.293H349.2L309.77,417.5h73.942Z" transform="translate(-82.961 -339.868)"/><path class="j" d="M414.527,416.743H340.561L307.69,384.4h73.966Z" transform="translate(-85.839 -384.4)"/><path class="j" d="M410.431,443.479H336.489L290.46,398.19H364.4Z" transform="translate(-109.681 -365.847)"/><path class="h" d="M392.132,456.293H318.166L278.74,417.5h73.966Z" transform="translate(-125.898 -339.868)"/><path class="e" d="M383.483,416.743H309.541L276.67,384.4h73.942Z" transform="translate(-128.762 -384.4)"/><path class="e" d="M379.425,443.479H305.459L259.43,398.19H333.4Z" transform="translate(-152.617 -365.847)"/><path class="j" d="M361.089,456.293H287.146L247.72,417.5h73.942Z" transform="translate(-168.82 -339.868)"/><path class="h" d="M352.477,416.743H278.511L245.64,384.4h73.966Z" transform="translate(-171.698 -384.4)"/><path class="r" d="M348.381,443.479H274.415L228.41,398.19h73.942Z" transform="translate(-195.539 -365.847)"/><path class="e" d="M321.433,416.743H247.491L214.62,384.4h73.942Z" transform="translate(-214.62 -384.4)"/></g></g><ellipse class="t" cx="215.963" cy="212.492" rx="215.963" ry="212.492" transform="translate(648.937)"/></g><g transform="translate(384.249 869.241)"><path class="k" d="M418.379,700.4c43.931-2.064,44.623-56.829,1.216-56.829a56.105,56.105,0,0,0-23.5-41.795,57.992,57.992,0,0,0-47.793-8.326c-12.3-26.573-42.43-44.023-72.011-41.7s-56.517,24.3-64.36,52.443c-24.6-6.5-53.013,6.356-64.026,28.966S144.54,685.6,165.111,700.4H418.379" transform="translate(-142.869 154.74)"/><path class="e" d="M423,325.07c22.025-1.032,22.383-28.5.62-28.5a28.179,28.179,0,0,0-11.775-20.968,29.037,29.037,0,0,0-23.98-4.175c-6.174-13.322-21.286-22.094-36.113-20.921s-28.342,12.173-32.275,26.292c-12.348-3.26-26.6,3.19-32.108,14.518-5.53,11.352-1.692,26.315,8.629,33.727H423" transform="translate(53.575 -250.405)"/></g><g transform="translate(666.457 835.197)"><rect class="u" width="38.354" height="125.783" transform="translate(159.779 70.76)"/><g transform="translate(51.13 133.64)"><path class="e" d="M464.178,418.663H425.824c0-69.47-40.07-125.783-89.484-125.783C406.921,292.857,464.178,349.193,464.178,418.663Z" transform="translate(-208.502 -292.857)"/><path class="g" d="M425.824,418.663h-51.13c0-69.47-17.186-125.783-38.354-125.783C385.754,292.857,425.824,349.193,425.824,418.663Z" transform="translate(-208.502 -292.857)"/><path class="o" d="M396.947,418.663H320.24c0-69.47,17.187-125.783,38.354-125.783C379.785,292.857,396.947,349.193,396.947,418.663Z" transform="translate(-230.78 -292.857)"/><path class="g" d="M388.26,292.87c-21.167,0-38.354,56.336-38.354,125.783H298.8C298.8,349.206,338.846,292.87,388.26,292.87Z" transform="translate(-260.446 -292.87)"/><path class="e" d="M410.524,292.87c-49.414,0-89.46,56.336-89.46,125.783H282.71C282.71,349.206,339.943,292.87,410.524,292.87Z" transform="translate(-282.71 -292.87)"/></g><g transform="translate(51.13 259.447)"><path class="e" d="M373.88,400.327v81.76h38.33V362.59C391.042,362.59,373.88,379.5,373.88,400.327Z" transform="translate(-156.558 -324.876)"/><path class="u" d="M282.71,346.51v37.714c21.167,0,38.33,16.91,38.33,37.737v81.76h51.154v-81.76c0-20.827,17.163-37.737,38.33-37.737A38.641,38.641,0,0,1,437.65,395.27a37.309,37.309,0,0,1,11.227,26.691v81.76h51.13v-81.76c0-20.827,17.163-37.737,38.33-37.737V346.51Z" transform="translate(-282.71 -346.51)"/><path class="e" d="M385.706,373.637A38.64,38.64,0,0,0,358.58,362.59c-21.167,0-38.33,16.91-38.33,37.737v81.76h76.683v-81.76A37.212,37.212,0,0,0,385.706,373.637Z" transform="translate(-230.766 -324.876)"/><path class="e" d="M282.71,362.59v119.5h38.33v-81.76C321.04,379.5,303.877,362.59,282.71,362.59Z" transform="translate(-282.71 -324.876)"/></g><rect class="v" width="351.547" height="220.115" transform="translate(0 416.658)"/><path d="M311.362,584.161H266.62V448.95a22.183,22.183,0,0,1,22.359-22h0a22.183,22.183,0,0,1,22.359,22V584.161Z" transform="translate(-253.843 21.16)"/><path d="M340.862,584.161H296.12V448.95a22.183,22.183,0,0,1,22.359-22h0a22.183,22.183,0,0,1,22.359,22V584.161Z" transform="translate(-213.024 21.16)"/><path d="M370.352,584.161H325.61V448.95a22.183,22.183,0,0,1,22.359-22h0a22.183,22.183,0,0,1,22.359,22V584.161Z" transform="translate(-172.219 21.16)"/><path d="M399.852,584.161H355.11V448.95a22.183,22.183,0,0,1,22.359-22h0a22.183,22.183,0,0,1,22.359,22V584.161Z" transform="translate(-131.4 21.16)"/><path d="M429.342,584.161H384.6V448.95a22.183,22.183,0,0,1,22.359-22h0a22.183,22.183,0,0,1,22.359,22V584.161Z" transform="translate(-90.595 21.16)"/><line class="w" y1="70.76" transform="translate(178.968)"/><path class="g" d="M430.824,273.575H338.98V236.26h91.844L399.55,253.827Z" transform="translate(-153.719 -235.392)"/></g><g transform="translate(601.502 1344.053)"><path class="j" d="M592.61,499.21V518.4H397.6V499.21Z" transform="translate(-7.651 -390.478)"/><path class="g" d="M686.923,561.582H491.913L329.44,452.85H524.426Z" transform="translate(-101.964 -452.85)"/><path class="j" d="M609.774,581v63.959H375.79V632.176h12.991V619.37H401.8V606.588h12.991V593.806h12.991V581Z" transform="translate(-37.83 -280.438)"/><rect class="j" width="181.971" height="172.644" transform="translate(389.949 127.918)"/><path class="e" d="M593.78,581v12.806H255.82V581H593.78Z" transform="translate(-203.832 -280.438)"/><rect class="u" width="16.257" height="172.644" transform="translate(373.716 127.918)"/><path class="o" d="M586.225,499.21V518.4H261.28V499.21Z" transform="translate(-196.277 -390.478)"/><path class="f" d="M586.225,561.582H261.28L423.753,452.85Zm-136.49-51.176a25.986,25.986,0,1,0-25.982,25.565A25.776,25.776,0,0,0,449.735,510.406Z" transform="translate(-196.277 -452.85)"/><path class="f" d="M588.33,586.46v12.782H250.37V586.46H588.33Z" transform="translate(-211.373 -273.092)"/><rect class="e" width="25.982" height="172.644" transform="translate(347.71 127.918)"/><path class="e" d="M582.894,591.91v12.782H244.91V591.91H582.894Z" transform="translate(-218.928 -265.76)"/><path class="f" d="M577.406,597.36v12.806H239.47V597.36H577.406Z" transform="translate(-226.455 -258.428)"/><rect class="u" width="42.239" height="172.644" transform="translate(305.471 127.918)"/><path class="e" d="M571.97,602.82V615.6H234.01V602.82H571.97Z" transform="translate(-234.01 -251.082)"/><rect class="e" width="25.982" height="172.644" transform="translate(279.488 127.918)"/><path class="u" d="M411.644,507.39V680.034h-19.5v-95.9c0-17.684-14.564-31.991-32.514-31.991s-32.514,14.307-32.514,31.991v95.9h-19.5V507.39Z" transform="translate(-132.156 -379.472)"/><path class="j" d="M380.827,558.461v95.9H315.8v-95.9c0-17.684,14.564-31.991,32.514-31.991S380.827,540.777,380.827,558.461Z" transform="translate(-120.838 -353.802)"/><ellipse class="k" cx="25.982" cy="25.565" rx="25.982" ry="25.565" transform="translate(201.494 31.991)"/><rect class="e" width="25.982" height="172.644" transform="translate(149.482 127.918)"/><rect class="u" width="45.481" height="172.644" transform="translate(104.001 127.918)"/><rect class="e" width="25.982" height="172.644" transform="translate(77.995 127.918)"/></g><g transform="translate(1062.675 1281.619)"><path class="e" d="M652.724,426.23v802.334H566.53V426.23Z" transform="translate(-235.077 -426.23)"/><rect class="u" width="331.453" height="233.014" transform="translate(0 321.811)"/><path class="u" d="M758.933,451.26V686.526H427.48V451.26H758.933Z" transform="translate(-427.48 -392.555)"/><rect class="x" width="331.453" height="219.693" transform="translate(0 582.642)"/><rect class="e" width="331.453" height="27.816" transform="translate(0 554.825)"/><rect class="e" width="331.453" height="27.84" transform="translate(0 293.971)"/><rect class="g" width="13.253" height="58.705" transform="translate(318.199)"/><rect class="f" width="13.253" height="58.705" transform="translate(304.946)"/><rect class="g" width="13.253" height="58.705" transform="translate(291.669)"/><rect class="f" width="13.253" height="58.705" transform="translate(278.416)"/><rect class="g" width="13.253" height="58.705" transform="translate(265.162)"/><rect class="f" width="13.253" height="58.705" transform="translate(251.909)"/><rect class="g" width="13.253" height="58.705" transform="translate(238.655)"/><rect class="f" width="13.253" height="58.705" transform="translate(225.378)"/><rect class="g" width="13.253" height="58.705" transform="translate(212.125)"/><rect class="f" width="13.253" height="58.705" transform="translate(198.872)"/><rect class="g" width="13.253" height="58.705" transform="translate(185.618)"/><rect class="f" width="13.253" height="58.705" transform="translate(172.365)"/><rect class="g" width="13.253" height="58.705" transform="translate(159.088)"/><rect class="f" width="13.253" height="58.705" transform="translate(145.834)"/><rect class="g" width="13.253" height="58.705" transform="translate(132.581)"/><rect class="f" width="13.253" height="58.705" transform="translate(119.328)"/><rect class="g" width="13.253" height="58.705" transform="translate(106.074)"/><rect class="f" width="13.253" height="58.705" transform="translate(92.797)"/><rect class="g" width="13.253" height="58.705" transform="translate(79.544)"/><rect class="f" width="13.253" height="58.705" transform="translate(66.291)"/><rect class="g" width="13.253" height="58.705" transform="translate(53.037)"/><rect class="f" width="13.253" height="58.705" transform="translate(39.76)"/><rect class="g" width="13.253" height="58.705" transform="translate(26.507)"/><rect class="f" width="13.253" height="58.705" transform="translate(13.253)"/><rect class="g" width="13.253" height="58.705" transform="translate(0)"/></g><g transform="translate(1094.021 1377.803)"><g transform="translate(159.397 26.526)"><path class="f" d="M561.462,490.469c.906,1.994,7.795,21.085,10.25,27.863.548,1.5.453,6.145-.215,7.6l-13.9,23.032,2.217,26.573h-4.028l-11.251-.023-9.487-32.484-2.717,17.121L529.9,575.466l-14.326-.024-3.266-.023,2.813-54.038L531.07,501.3l4.028,13.462,12.729-30.537,8.224,2.3,2.264.61c.024.024.048.024.119.047a6.381,6.381,0,0,1,3,3.1C561.39,490.258,561.414,490.351,561.462,490.469Zm-5.363,39.4,4.148-7.458a146.147,146.147,0,0,0-5.816-14.025Zm-17.949-1.29a3.075,3.075,0,1,0-3.1,3.026A3.048,3.048,0,0,0,538.149,528.581Z" transform="translate(-500.843 -470.908)"/><rect class="j" width="13.706" height="2.557" transform="translate(39.904 168.235)"/><path class="e" d="M524.431,552.249c.715-2.509,3.432-4.409,6.674-4.409a6.91,6.91,0,0,1,6.508,3.94,4.91,4.91,0,0,1,.334,1.759H524.24A6.248,6.248,0,0,1,524.431,552.249Z" transform="translate(-484.336 -385.328)"/><path class="f" d="M525.22,543.11h8.772v7.153c0,.915-1.955,1.665-4.386,1.665s-4.386-.751-4.386-1.665V543.11Z" transform="translate(-482.98 -391.692)"/><path class="f" d="M531,550.1c-3.242,0-5.959,1.876-6.674,4.409l2.121-7.833v-.516c0,.915,1.955,1.665,4.386,1.665s4.386-.751,4.386-1.665l2.288,7.881A6.935,6.935,0,0,0,531,550.1Z" transform="translate(-484.211 -387.588)"/><path class="j" d="M523.417,526.853l-2.717-.446,2.717-17.1,9.487,32.484,11.251.023-2.407,46.767H529.281l-5.2-54.906Z" transform="translate(-489.234 -437.166)"/><path class="e" d="M520.56,504.876a3.075,3.075,0,0,1,6.15,0,3.064,3.064,0,0,1-3.1,3.026A3.023,3.023,0,0,1,520.56,504.876Z" transform="translate(-489.428 -447.202)"/><path class="e" d="M522.707,499.571l-1.311-1.361a5.892,5.892,0,0,0,3.337-3.025l3.576-7.529c.977-2.04.167-3.33-1.406-4.362-.024-.023-.024-.023-.048-.023a.882.882,0,0,0-.167-.141l10.25,2.58-12.729,30.537-4.029-13.462Z" transform="translate(-489.954 -472.388)"/><path class="f" d="M522.25,478.63c.906.422.834,1.571.6,2.674C522.965,480.694,523.132,479.193,522.25,478.63Z" transform="translate(-487.09 -478.442)"/><path d="M522.494,519.7l5.2,54.905-5.84-49.534.62-5.371Z" transform="translate(-487.643 -423.187)"/><path class="y" d="M522,487.017a68.063,68.063,0,0,1,3.337-6.051.023.023,0,0,0,.024-.023.275.275,0,0,0,.048-.117c.143-.211.262-.422.406-.61-.024-.023-.024-.023,0-.023a3.278,3.278,0,0,1,2.24-1.642.824.824,0,0,1,.238.023.74.74,0,0,1,.334.164c.882.563.715,2.064.6,2.674-.024.164-.048.258-.048.258-.047.3-.143.516-.191.821-.262,1.36-.786,2.838-1.073,3.917-.215.915-.262,1.571.143,1.759a20.194,20.194,0,0,1,2.265,1.2c.024,0,.024,0,.048.023,1.573,1.055,2.408,2.322,1.406,4.362l-3.575,7.529a5.823,5.823,0,0,1-3.337,3.026l-7.2-7.529c.954-2.744,3.385-7.927,3.385-7.927.143-.258.429-.915.834-1.689C521.9,487.158,521.927,487.111,522,487.017Z" transform="translate(-493.441 -478.55)"/><path class="j" d="M528,531.915l2.431-15.315,2.717.445.667,6.825h-.024l-.62,5.371-5.649,49.535h-12.2l-1.645-46.884Z" transform="translate(-498.962 -427.358)"/><path class="f" d="M523.766,553.9c-4.386,1.712-7.556.539-8.8-.7V543.11h8.8Z" transform="translate(-497.163 -391.692)"/><path class="g" d="M521.2,547.816c1.263,1.243,4.41,2.416,8.8.7a6.143,6.143,0,0,0,.882-.563v6.872H510.494v-5.113l-.024-.07,2.36-.586,7.747-1.947C520.577,547.066,520.791,547.394,521.2,547.816Z" transform="translate(-503.389 -386.313)"/><path class="f" d="M517.178,531.293a6.748,6.748,0,0,1-4.6.633,6.311,6.311,0,0,1-4.243-3.166,6.223,6.223,0,0,1,.048-6.309c2.336-8.936,9.225-34.9,9.988-36.963l.072-.211a6.524,6.524,0,0,1,7.27-4.034l.572.141,9.749,2.134a.371.371,0,0,0-.071.188c-.405.774-.715,1.431-.834,1.689,0,0-2.432,5.207-3.385,7.927l7.2,7.529,1.311,1.36L537.7,505.4l-15.947,20.076Z" transform="translate(-507.5 -475.075)"/><path class="e" d="M513.455,548.264v5.113H508.33c.143-1.947.739-4.339,3.433-4.785l1.669-.422Z" transform="translate(-506.351 -384.884)"/><path class="j" d="M533.877,550.39V553.2H508.3c0-.493.024-2.182.048-2.7v-.117h25.529Z" transform="translate(-506.392 -381.897)"/></g><g transform="translate(170.339)"><path class="j" d="M541.119,482.063a14.351,14.351,0,0,1-1.764,6.966L512.92,474.792a15.115,15.115,0,0,1,28.2,7.271Z" transform="translate(-510.942 -467.24)"/><path class="y" d="M514.044,470.46,540.48,484.7a15.119,15.119,0,0,1-28.39-6.966A14.573,14.573,0,0,1,514.044,470.46Z" transform="translate(-512.09 -462.908)"/></g><rect class="k" width="131.652" height="79.626" transform="translate(0 28.051)"/><path class="z" d="M444.68,498.319l18.712,19.959,27.913-14.33,9.416-14.588,23.265,16,16.591,11.563,11.585-23.642" transform="translate(-435.026 -437.48)"/><ellipse class="o" cx="3.862" cy="3.8" rx="3.862" ry="3.8" transform="translate(61.976 48.526)"/><ellipse class="o" cx="3.862" cy="3.8" rx="3.862" ry="3.8" transform="translate(5.792 57.04)"/><ellipse class="o" cx="3.862" cy="3.8" rx="3.862" ry="3.8" transform="translate(113.273 51.997)"/><ellipse class="o" cx="3.862" cy="3.8" rx="3.862" ry="3.8" transform="translate(52.417 62.669)"/></g><g transform="translate(22.407 1055.476)"><rect class="aa" width="272.79" height="33.539" transform="translate(136.395 993.085)"/><rect class="u" width="272.79" height="33.539" transform="translate(136.395 959.546)"/><rect class="e" width="272.79" height="33.539" transform="translate(136.395 926.007)"/><rect class="u" width="272.79" height="33.563" transform="translate(136.395 892.421)"/><rect class="e" width="272.79" height="33.539" transform="translate(136.395 858.882)"/><rect class="u" width="272.79" height="33.539" transform="translate(136.395 825.343)"/><rect class="e" width="272.79" height="33.539" transform="translate(136.395 791.803)"/><rect class="u" width="272.79" height="33.563" transform="translate(136.395 758.218)"/><rect class="e" width="272.79" height="33.539" transform="translate(136.395 724.678)"/><rect class="u" width="272.79" height="33.539" transform="translate(136.395 691.139)"/><rect class="e" width="272.79" height="33.539" transform="translate(136.395 657.6)"/><rect class="u" width="272.79" height="33.563" transform="translate(136.395 624.014)"/><rect class="e" width="272.79" height="33.539" transform="translate(136.395 590.475)"/><rect class="u" width="272.79" height="33.539" transform="translate(136.395 556.936)"/><rect class="e" width="272.79" height="33.539" transform="translate(136.395 523.397)"/><rect class="u" width="272.79" height="33.563" transform="translate(136.395 489.811)"/><rect class="e" width="272.79" height="33.539" transform="translate(136.395 456.272)"/><rect class="u" width="272.79" height="33.539" transform="translate(136.395 422.733)"/><rect class="e" width="272.79" height="33.539" transform="translate(136.395 389.194)"/><rect class="u" width="272.79" height="33.563" transform="translate(136.395 355.608)"/><rect class="e" width="272.79" height="33.539" transform="translate(136.395 322.069)"/><rect class="u" width="272.79" height="33.539" transform="translate(136.395 288.53)"/><rect class="e" width="272.79" height="33.539" transform="translate(136.395 254.991)"/><rect class="u" width="272.79" height="33.539" transform="translate(136.395 221.428)"/><rect class="e" width="272.79" height="33.563" transform="translate(136.395 187.866)"/><path class="u" d="M321.08,395.61v33.539H48.29V395.61H321.08Z" transform="translate(88.105 -241.283)"/><rect class="e" width="170.506" height="33.539" transform="translate(136.395 120.788)"/><rect class="u" width="170.506" height="33.539" transform="translate(136.395 87.225)"/><rect class="e" width="170.506" height="33.563" transform="translate(136.395 53.663)"/><path class="u" d="M218.82,338.39v33.539H48.29V338.39H218.82Z" transform="translate(88.105 -318.266)"/><rect class="e" width="156.871" height="20.123" transform="translate(136.395)"/><path class="ab" d="M127.465,1234.368v33.539H-8.93V395.61h136.4v838.758Z" transform="translate(8.93 -241.283)"/><path class="e" d="M103.707,439.054v33.539H8.24V338.39h95.467V439.054Z" transform="translate(32.688 -318.266)"/><rect class="e" width="81.832" height="20.123" transform="translate(54.563)"/></g><g transform="translate(1069.326 1073.348)"><g transform="translate(0 76.882)"><g transform="translate(21.369 105.12)"><path class="j" d="M441.178,441.767a1.956,1.956,0,0,1-1.859-1.36,1.889,1.889,0,0,1,1.287-2.369L485.8,424.693V416.93a1.931,1.931,0,0,1,3.862,0v9.17a1.911,1.911,0,0,1-1.383,1.829L441.7,441.674A1.23,1.23,0,0,1,441.178,441.767Z" transform="translate(-439.235 -415.03)"/><path class="j" d="M507.288,436.495a2.2,2.2,0,0,1-.548-.07l-44.1-13.017V434.6a1.931,1.931,0,0,1-3.862,0V420.851a1.848,1.848,0,0,1,.787-1.525,2.029,2.029,0,0,1,1.716-.3l46.577,13.744a1.889,1.889,0,0,1,1.287,2.369A1.927,1.927,0,0,1,507.288,436.495Z" transform="translate(-412.19 -409.758)"/></g><path class="k" d="M442.875,383.61h38.807A23.011,23.011,0,0,1,502.658,397l14.707,32.437h35.088a13.847,13.847,0,0,1,13.968,13.744v16.042H452.314l-20.5-60.534A11.517,11.517,0,0,1,442.875,383.61Z" transform="translate(-428.954 -352.182)"/><g transform="translate(30.654 8.209)"><path class="f" d="M465.343,376.27a12.215,12.215,0,0,1,1.788,6.356,12.54,12.54,0,0,1-23.241,6.333l.262-.188,20.9-12.313Z" transform="translate(-442.078 -370.266)"/><path class="j" d="M443.13,386.047a12.565,12.565,0,0,1,23.265-6.356l-.286.188-20.9,12.313-.262.188A11.723,11.723,0,0,1,443.13,386.047Z" transform="translate(-443.13 -373.71)"/></g><ellipse class="j" cx="6.269" cy="6.168" rx="6.269" ry="6.168" transform="translate(26.459)"/><path class="e" d="M486.215,418.933l-36.137,4.855-7.7-28.731c-.977-4.62,1.979-9.077,6.007-9.077h22.383c6.078,0,11.37,4.878,12.872,11.844Z" transform="translate(-413.775 -348.993)"/><path class="j" d="M494.556,417.722l-17.21,5.723a24.672,24.672,0,0,1-31.846-17.4h0l51.178-6.872Z" transform="translate(-409.196 -331.248)"/><path class="e" d="M440.21,432.936H505.4V416.894a13.847,13.847,0,0,0-13.968-13.744H430.27Z" transform="translate(-430.27 -325.893)"/><path class="j" d="M496.092,428.952h0L480.36,420.72l2.169,12.829h5.2l.405-4.2,7.961,4.2h4.648A4.592,4.592,0,0,0,496.092,428.952Z" transform="translate(-360.961 -302.254)"/><path class="j" d="M476.038,394.79,458.78,407.6l17.234-1.947Z" transform="translate(-390.821 -337.14)"/><path class="f" d="M494.185,385.71a2.979,2.979,0,0,0-3.313.54l-4.052,4.245-1.478-.868a1.3,1.3,0,0,0-1.669.282,1.261,1.261,0,0,0-.286.8V394.6a2.1,2.1,0,0,1-.858,1.712L445.51,424.526l17.735-2.392,23.67-22.75a14.8,14.8,0,0,0,1.049-1.055l7.27-8.115A2.911,2.911,0,0,0,494.185,385.71Z" transform="translate(-409.182 -349.732)"/><g transform="translate(69.008 53.75)"><g transform="translate(0.024)"><path class="j" d="M479.456,393.344a7.457,7.457,0,0,1,5.2,10.155L470.97,434.365h-.024l-8.486-2.838L470.3,398.6A7.623,7.623,0,0,1,479.456,393.344Z" transform="translate(-454.761 -393.128)"/><path class="f" d="M475.267,412.338,472,419.749l-.1,8.889-12.586-2.3,5.458-8.279L466.8,409.5Z" transform="translate(-459.105 -371.1)"/><path class="j" d="M461.113,420.563a3.054,3.054,0,0,1-1.883-2.791,2.749,2.749,0,0,1,.191-1.055l.024-.047,12.61,2.3-2.193,2.322a4.154,4.154,0,0,1-4.6.985Z" transform="translate(-459.23 -361.454)"/></g><g transform="translate(0)"><path class="ac" d="M475.429,434.365,489.112,403.5a7.45,7.45,0,0,0-5.2-10.155,7.622,7.622,0,0,0-9.153,5.254l-7.842,32.929-2.026,8.561-5.459,8.279-.024.047a2.748,2.748,0,0,0-.191,1.055,3.054,3.054,0,0,0,1.883,2.791L465.251,454a4.154,4.154,0,0,0,4.6-.985l2.193-2.322.072-8.889,3.313-7.435" transform="translate(-459.22 -393.128)"/><path class="ac" d="M459.25,416.67l.167.023,12.586,2.3" transform="translate(-459.178 -361.454)"/><path class="ac" d="M462.46,409.5l8.462,2.838h.024" transform="translate(-454.737 -371.1)"/></g></g><g transform="translate(91.218 67.946)"><g transform="translate(0)"><path class="f" d="M494.9,428.586l3.5,3.635-15.732-8.232-3.957-5.7H487.7A40.249,40.249,0,0,0,494.9,428.586Z" transform="translate(-454.462 -373.47)"/><path class="j" d="M501.748,444h-8.986l-23.17-33.234a7.738,7.738,0,0,1,6.817-11.586,7.9,7.9,0,0,1,4.219,1.22,7.565,7.565,0,0,1,2.884,3.26l17.02,37.714C500.938,442.265,501.319,443.133,501.748,444Z" transform="translate(-468.538 -399.18)"/></g><g transform="translate(0.024)"><path class="ac" d="M501.734,444a40.932,40.932,0,0,0,7.223,10.3l3.5,3.635L496.729,449.7l-3.957-5.7L469.6,410.766a7.738,7.738,0,0,1,6.818-11.586,7.9,7.9,0,0,1,4.219,1.22,7.566,7.566,0,0,1,2.884,3.26l17.02,37.714C500.924,442.265,501.305,443.133,501.734,444Z" transform="translate(-468.547 -399.18)"/></g></g></g><rect class="e" width="152.032" height="91.822" transform="translate(111.652)"/><rect class="k" width="10.178" height="25.659" transform="translate(152.032 45.923)"/><rect class="h" width="10.178" height="55.468" transform="translate(170.816 16.089)"/><rect class="g" width="10.178" height="25.659" transform="translate(190.648 45.923)"/><path d="M.21,25.868l10.1.082L10.1.082,0,0Z" transform="translate(199.699 53.227) rotate(-45)"/><g transform="translate(161.972 178.578)"><path class="g" d="M560.719,441.55c-27.126,0-24.1-26.69-24.1-26.69h-6.031s3,26.69-24.1,26.69Z" transform="translate(-486.777 -411.834)"/><path d="M589.992,417.229H500.079a1.847,1.847,0,0,1-1.859-1.829h0a1.847,1.847,0,0,1,1.859-1.829h89.913a1.847,1.847,0,0,1,1.859,1.829h0A1.832,1.832,0,0,1,589.992,417.229Z" transform="translate(-498.22 -413.57)"/></g><g transform="translate(225.14 73.528)"><path class="e" d="M603.4,433.3c-2.36-2.838-33.777-14.143-33.777-14.143L547.24,451.193H531.15L559.9,400.486a8.984,8.984,0,0,1,10.655-3.424l52.775,19.889Z" transform="translate(-515.823 -331.508)"/><g transform="translate(62.893 108.052)"><path d="M553.048,441.587a1.956,1.956,0,0,1-1.859-1.36,1.889,1.889,0,0,1,1.287-2.369l45.2-13.345V416.75a1.931,1.931,0,0,1,3.862,0v9.17a1.911,1.911,0,0,1-1.383,1.829l-46.577,13.744A1.737,1.737,0,0,1,553.048,441.587Z" transform="translate(-551.105 -414.85)"/><path d="M619.158,436.315a2.067,2.067,0,0,1-.548-.07l-44.1-13.017v11.187a1.931,1.931,0,0,1-3.862,0V420.671a1.848,1.848,0,0,1,.786-1.525,2.029,2.029,0,0,1,1.716-.3l46.577,13.744a1.889,1.889,0,0,1,1.287,2.369A1.956,1.956,0,0,1,619.158,436.315Z" transform="translate(-524.06 -409.578)"/></g><path class="e" d="M627.052,438.288l-65.552.985,15.041-47.963a14.1,14.1,0,0,1,13.492-9.78h9.606A27.2,27.2,0,0,1,627.052,408.5Z" transform="translate(-473.828 -351.626)"/><path class="g" d="M670.187,383.43H628.234a16.279,16.279,0,0,0-15.47,10.976l-11.8,34.853H560.608A13.847,13.847,0,0,0,546.64,443v16.042H660.747l20.5-60.535A11.49,11.49,0,0,0,670.187,383.43Z" transform="translate(-494.389 -349.07)"/><path class="j" d="M554.446,430.539H524.96a8.957,8.957,0,0,1,9.034-8.889h20.428v8.889Z" transform="translate(-524.388 -297.649)"/><path class="j" d="M551.656,425.459,524.72,413.685h0a9.12,9.12,0,0,1,11.942-4.527l18.688,8.162Z" transform="translate(-524.72 -315.484)"/><path class="e" d="M580.343,426.407,549.57,391.413l8.915-5.863,27.365,23.313Z" transform="translate(-490.335 -346.218)"/><path class="e" d="M593.592,411.876,569.9,394.5a9.435,9.435,0,0,0-13.277,2.158L533.07,430.428l11.966,5.066,29.772-30.7Z" transform="translate(-513.166 -336.636)"/><ellipse class="o" cx="7.223" cy="7.107" rx="7.223" ry="7.107" transform="translate(52.012 27.253)"/><g transform="translate(98.827)"><path class="j" d="M578.834,368.78A13.847,13.847,0,0,1,592.8,382.524a13.577,13.577,0,0,1-4.982,10.531l-20.69-18.013A13.923,13.923,0,0,1,578.834,368.78Z" transform="translate(-564.865 -368.78)"/><path class="o" d="M568.421,371.45l20.69,18.013a14.007,14.007,0,0,1-22.931-10.531A13.024,13.024,0,0,1,568.421,371.45Z" transform="translate(-566.18 -365.188)"/></g></g></g><g transform="translate(130.579 906.591)"><rect class="e" width="107.195" height="3.917" transform="translate(77.847 70.286)"/><g transform="translate(89.126)"><path class="ad" d="M160.855,266.33H77.807a3.931,3.931,0,0,0-3.957,3.893V310.7h90.986V270.223A3.967,3.967,0,0,0,160.855,266.33Z" transform="translate(-73.826 -266.33)"/><path class="e" d="M73.84,294.524a3.931,3.931,0,0,0,3.957,3.893h83.048a3.931,3.931,0,0,0,3.957-3.893V285.26H73.84Z" transform="translate(-73.84 -240.862)"/></g><rect class="e" width="21.596" height="12.735" transform="translate(126.145 57.574)"/><g transform="translate(0 37.01)"><path class="ac" d="M59.31,334.731v.8l11.108,4.081.906-2.017L67.891,313.74H59.31Z" transform="translate(-4.819 -239.555)"/><path class="f" d="M62.44,332.016l14.541.328-.453-3.354h-13.9A21.05,21.05,0,0,0,62.44,332.016Z" transform="translate(-0.488 -219.038)"/><path class="f" d="M80.32,328.99l.524,3.354H103.18a7.925,7.925,0,0,0-.715-3.354Z" transform="translate(24.253 -219.038)"/><path class="o" d="M63.97,325.927l9.559,3.518-.739-5.535H64.876Z" transform="translate(1.629 -225.873)"/><path class="o" d="M64.236,327.53a21.637,21.637,0,0,0-1.716,5.957h13.9l-.548-3.893-10.8-3.964Z" transform="translate(-0.377 -223.559)"/><path class="o" d="M95.912,330.97H91.121l-2.312-7.06H79.56l1.812,11.915h22.145A8.35,8.35,0,0,0,95.912,330.97Z" transform="translate(23.201 -225.873)"/><path class="j" d="M66.343,337.593h7.914l3.409-23.853H62.91Z" transform="translate(0.163 -239.555)"/><path class="ae" d="M103.7,301.627a7.822,7.822,0,0,0-2.36-5.605,8.179,8.179,0,0,0-5.721-2.322h-9.8v7.951H103.7Z" transform="translate(31.863 -266.517)"/><path class="k" d="M74.59,335.514l14.183-23.172,13.968,4.128a8.387,8.387,0,0,0,3.623.774H130.13V308.1H110.941A159.667,159.667,0,0,0,96.591,295.1c-8.152-6.5-18.283-12.993-26.149-12.993a19.836,19.836,0,0,0-16.662,8.959L68.225,336.8Z" transform="translate(-12.471 -282.11)"/><path class="j" d="M106.767,310.121a10.289,10.289,0,0,0-12.038-7.576l-28.557,5.723-6.055,1.384-.238.07,3.647,11.539H89.819l17,31.663h9.249Z" transform="translate(-4.03 -254.887)"/><path class="o" d="M63.879,318.22H87.692v-7.81H61.4Z" transform="translate(-1.927 -244.035)"/><path class="e" d="M81.837,335.529V313.74H79.572v21.789l-28.6,10.249a4.41,4.41,0,0,0-3.576-1.853,4.3,4.3,0,1,0,4.386,4.292,1.985,1.985,0,0,0-.024-.375L79.6,337.9v6.192a4.285,4.285,0,0,0-3.242,4.128,4.374,4.374,0,0,0,8.748,0,4.29,4.29,0,0,0-3.218-4.128V337.9l10.2,3.753,10.8,3.964,5.935,2.2a2.241,2.241,0,0,0-.024.4,4.378,4.378,0,1,0,.834-2.486l-7.08-2.6-9.559-3.518Z" transform="translate(-27.345 -239.555)"/><path d="M59.911,306.311l.262-.07,6.031-1.36-6.364,1.267Z" transform="translate(-4.085 -251.475)"/><path class="o" d="M98.4,354.088l-2.455-7.81L92.3,334.739l-.072-.188L77.783,288.816l-1.6-5.066H36.45l17.043,53.874A23.751,23.751,0,0,0,76.21,354.065H98.4Z" transform="translate(-36.45 -279.904)"/></g><g transform="translate(59.33 7.06)"><path class="ae" d="M83.314,271.36a13.29,13.29,0,0,1,3.29,8.772,13.741,13.741,0,0,1-23.694,9.241,15.6,15.6,0,0,0,2.551.211,17.717,17.717,0,0,0,17.854-17.567Z" transform="translate(-59.168 -266.622)"/><path class="j" d="M85.487,274.078v.633a17.717,17.717,0,0,1-17.854,17.567,15.6,15.6,0,0,1-2.551-.211,13.307,13.307,0,0,1-3.742-9.241A13.584,13.584,0,0,1,75.046,269.34,13.867,13.867,0,0,1,85.487,274.078Z" transform="translate(-61.34 -269.34)"/></g></g><g transform="translate(0 547.574)"><path class="e" d="M323.9,179.21,169.1,347.562l55.588-5.981-1.5,18.013L-2.717,487.629-18.33,463.682,328.784,152.59Z" transform="translate(18.33 -60.338)"/><g transform="translate(76.791)"><path class="g" d="M74.341,243.825,63.4,233.247c-.358-.563-1.6-3.377-2.455-5.535l-.167-.4c-1.883-4.6-3.647-8.936-5.888-13.416a1.2,1.2,0,0,0-1.6-.539,1.164,1.164,0,0,0-.548,1.571c2.217,4.409,3.957,8.7,5.816,13.251l.167.4c.62,1.5,1.1,2.65,1.478,3.518l-7.938-2.463a1.211,1.211,0,0,0-1.5.774,1.156,1.156,0,0,0,.787,1.478l9.7,3-1.526,13.3a1.152,1.152,0,0,0,.834,1.243.706.706,0,0,0,.215.047,1.193,1.193,0,0,0,1.311-1.032l1.359-11.868,9.225,8.912a1.115,1.115,0,0,0,.477.281,1.248,1.248,0,0,0,1.216-.3A1.162,1.162,0,0,0,74.341,243.825Z" transform="translate(37.061 21.259)"/><path class="e" d="M130.783,213.717l-23,5.84,4.481-9.217.1.047Z" transform="translate(116.037 17.358)"/><path class="e" d="M128.181,219.758,109.755,216.4l-.1-.047,5.1-10.507C118.766,207.914,128.181,219.758,128.181,219.758Z" transform="translate(118.638 11.317)"/><path class="k" d="M123.8,206.125l-5.1,10.507-4.481,9.217c-2.717-3.964-6.746-4.034-10.989-5.418l-.1-.141a5.415,5.415,0,0,0,2.479-3.049,5.316,5.316,0,0,0,.167-2.65c4.624,1.337,14.04-10.3,17.544-8.8C123.487,205.914,123.63,206.031,123.8,206.125Z" transform="translate(109.602 11.065)"/><path class="f" d="M156.453,225.347c-3.5-1.5-12.92,10.132-17.544,8.8a5.427,5.427,0,0,0-3.742-4.128,5.556,5.556,0,0,0-6.007,1.853l-.286-.211c-1.74-.727-5.435-1.173-7.2-1.759,1.335,2.65,4.386,4.48,6.436,6.356a5.442,5.442,0,0,0,3.742,4.081,5.53,5.53,0,0,0,4.41-.493l.1.141c4.243,1.384,8.271,1.454,10.989,5.418-16.042,6.731-39.522,10.3-64.384,9.921,5.864-2.791,7.1-12.29,3.933-17.262,2.05.61,6.96,1.548,9.8-2.158,9.582-12.548-15.589-27.16-17.329-36.8-1.669-9.194,8.677-9.311,15.065-5.957a13.078,13.078,0,0,1,2.455,1.642c4.72,5.089,34.754,13.58,42.048,16.746a42.423,42.423,0,0,1,12.92,8.209C153.759,221.548,154.5,223.893,156.453,225.347Z" transform="translate(76.469 -8.485)"/><path class="e" d="M110.575,211.982a5.316,5.316,0,0,1-.167,2.65,5.415,5.415,0,0,1-2.479,3.049,5.627,5.627,0,0,1-4.41.493,5.443,5.443,0,0,1-3.742-4.081,5.209,5.209,0,0,1,.143-2.7,5.262,5.262,0,0,1,.906-1.689,5.556,5.556,0,0,1,6.007-1.853A5.352,5.352,0,0,1,110.575,211.982Z" transform="translate(104.804 13.675)"/><path class="k" d="M104.209,209.409l.286.211a5.3,5.3,0,0,0-1.049,4.386c-2.074-1.876-5.125-3.729-6.436-6.356C98.774,208.236,102.469,208.682,104.209,209.409Z" transform="translate(101.134 13.739)"/><path class="k" d="M124.837,238.025c1.74,9.663,26.912,24.251,17.329,36.8-2.837,3.706-7.747,2.768-9.8,2.158a6.6,6.6,0,0,0,2.956-5.183c1.168-10.531-12.491-11.7-19.785-13.72-35.231-9.78-43.479-27.629-44.551-30.3-2.765-6.825-16.376-32.695-20.071-37.784a26.236,26.236,0,0,0-1.835-2.252c-.072-.094-.167-.188-.238-.281-2.074-2.556-3.647-8.725-1.43-11.047,2.121-2.228,4.529-1.454,5.554-4.714.834-2.627-.5-6.215,1.978-8.373,2.265-1.97,6.2-.915,8.844-.094,7.89,2.392,13.706,7.763,19.88,12.923,7.437,6.215,14.707,12.595,22.121,18.81,7.962,6.684,29.057,32.46,34.158,37.1C133.514,228.714,123.169,228.831,124.837,238.025Z" transform="translate(31.02 -47.407)"/><path class="o" d="M162.861,260.781c3.146,4.972,1.931,14.471-3.933,17.262h0c-38.568-.586-80.426-10.625-102.9-33-23.5-23.407-33.491-62.106-31.489-70.784,9.3,29.552,31.8,66.562,82.285,89.781,11.895,5.465,18.974-4.269,31.441-4.644,6.984-.211,13.754,2.463,20.571,2.416A8.169,8.169,0,0,0,162.861,260.781Z" transform="translate(0.505 -31.184)"/><path class="af" d="M129.458,234.181a6.508,6.508,0,0,1-2.956,5.183,7.755,7.755,0,0,1-4.028,1.009c-6.817.047-13.587-2.627-20.571-2.416-12.467.375-19.546,10.109-31.441,4.644-34.325-16.23-16.09-52.818-5.339-52.419,1.073,2.65,9.32,20.522,44.551,30.3C116.967,222.478,130.626,223.627,129.458,234.181Z" transform="translate(36.864 -9.767)"/><path class="e" d="M52.67,172c.5.375.977.727,1.454,1.1,11.323,8.584,22.74,18.294,28.461,24.72a1.494,1.494,0,0,0,.238.281c.715.821,1.335,1.571,1.835,2.252,3.695,5.089,17.306,30.959,20.071,37.784-10.727-.375-28.986,36.189,5.339,52.419-50.511-23.2-73.013-60.206-82.285-89.781-7.914-25.236-6.221-45.055-4.076-46.157,1.883-.985,10.893,4.339,21.5,11.868C47.641,168.267,50.144,170.1,52.67,172Z" transform="translate(-2.768 -57.769)"/><path class="af" d="M71.843,168.816a83.873,83.873,0,0,1,6.984,8.655c-2.646-.821-6.579-1.876-8.844.094-2.455,2.158-1.144,5.746-1.978,8.373-1.025,3.26-3.433,2.486-5.554,4.714-2.217,2.345-.644,8.49,1.43,11.047-5.7-6.426-17.139-16.136-28.461-24.72l.191-.211c.405-9.053,4.052-23.219,9.916-24.885,7.246-2.087,18.831,8.584,26.316,16.934Z" transform="translate(15.912 -61.647)"/><path class="f" d="M47.37,172.97a2.489,2.489,0,0,1,.238.281A1.494,1.494,0,0,1,47.37,172.97Z" transform="translate(32.448 -32.919)"/><path class="e" d="M49.7,153.025c8.319,11.7,18.617,28.356,19.093,29.153-7.485-8.326-19.07-19.021-26.316-16.934A63.677,63.677,0,0,1,38.4,152.837c-.024-.164-.072-.352-.119-.61,0-.023-.024-.047-.024-.094-1.1-5.652-.834-9.968,1.359-10.437C40.949,141.415,45,146.434,49.7,153.025Z" transform="translate(18.964 -75.009)"/><path class="e" d="M42.223,188.6l-.191.211c-.477-.375-.977-.751-1.454-1.1-1.1-5.652-16.972-38.7-6.174-44.562,1.812-.962,4,.281,6.269,2.6,4.91,5.043,10.035,15.034,11.442,17.942C46.251,165.382,42.628,179.525,42.223,188.6Z" transform="translate(9.324 -73.482)"/><path class="g" d="M57.205,190.506a63.677,63.677,0,0,0,4.076,12.407C59.875,200,54.75,189.99,49.839,184.971l.024-.024c-3.385-6.239-20.524-43.2-22.788-50.121-2.312-7.036-3.17-12.337-3-15.878h0c.286-6.426,3.909-7.036,8.319-1.548,2.36,2.932,4.934,7.576,7.342,14,2.455,6.5,15.589,50.731,17.377,58.424,0,.023.024.07.024.094A1.282,1.282,0,0,0,57.205,190.506Z" transform="translate(0.182 -112.702)"/><path class="f" d="M38.029,146.78a5.5,5.5,0,0,1-.119-.61A3.082,3.082,0,0,0,38.029,146.78Z" transform="translate(19.358 -68.976)"/><path class="o" d="M63.681,191.272c-4.7-6.591-8.748-11.61-10.083-11.352-2.193.469-2.455,4.785-1.359,10.437-1.788-7.693-14.922-51.927-17.377-58.424-2.408-6.426-4.982-11.07-7.342-14l.882.023c3.1-.657,6.984-2.7,10.2-3.612,5.554-1.618,7.175-2.2,10.2,3.917C53.026,126.7,58.27,178.279,63.681,191.272Z" transform="translate(4.981 -113.257)"/><path class="o" d="M63.787,225.483c-2.527-1.9-5.03-3.729-7.461-5.441h0c-3.862-4.714-35.684-70.9-41.166-91.329-1.168-4.339-3.051-12.032,2.5-13.908,2.026-.68,18.64,4.667,20.428,2.721-.143,3.542.715,8.842,3,15.878,2.265,6.919,19.4,43.882,22.788,50.121l-.024.023c-2.265-2.3-4.481-3.565-6.269-2.6C46.815,186.785,62.691,219.831,63.787,225.483Z" transform="translate(-13.885 -111.255)"/></g></g></g></g></svg>