<svg xmlns="http://www.w3.org/2000/svg" width="24.055" height="24.055" viewBox="0 0 24.055 24.055"><defs><style>.a{opacity:0.402;}.b{fill:#fff;}</style></defs><g class="a"><ellipse class="b" cx="1" cy="0.5" rx="1" ry="0.5" transform="translate(17 9)"/><path class="b" d="M20.3,1.879H19.075V.94A.94.94,0,1,0,17.2.94v.94H12.92V.94a.94.94,0,1,0-1.879,0v.94H6.812V.94a.94.94,0,1,0-1.879,0v.94H3.759A3.763,3.763,0,0,0,0,5.638V20.3a3.763,3.763,0,0,0,3.759,3.759h7.188a.94.94,0,1,0,0-1.879H3.759A1.881,1.881,0,0,1,1.879,20.3V5.638A1.881,1.881,0,0,1,3.759,3.759H4.933V4.7a.94.94,0,0,0,1.879,0v-.94h4.228V4.7a.94.94,0,1,0,1.879,0v-.94H17.2V4.7a.94.94,0,1,0,1.879,0v-.94H20.3a1.881,1.881,0,0,1,1.879,1.879v5.356a.94.94,0,1,0,1.879,0V5.638A3.763,3.763,0,0,0,20.3,1.879Z"/><path class="b" d="M275.685,270a5.685,5.685,0,1,0,5.685,5.685A5.691,5.691,0,0,0,275.685,270Zm0,9.49a3.806,3.806,0,1,1,3.806-3.806A3.81,3.81,0,0,1,275.685,279.49Z" transform="translate(-257.315 -257.315)"/><path class="b" d="M373.3,331.926h-.423v-.987a.94.94,0,0,0-1.879,0v1.926a.94.94,0,0,0,.94.94H373.3a.94.94,0,0,0,0-1.879Z" transform="translate(-353.57 -314.496)"/><ellipse class="b" cx="1" cy="0.5" rx="1" ry="0.5" transform="translate(13 9)"/><circle class="b" cx="1" cy="1" r="1" transform="translate(9 13)"/><circle class="b" cx="0.5" cy="0.5" r="0.5" transform="translate(5 9)"/><ellipse class="b" cx="0.5" cy="1" rx="0.5" ry="1" transform="translate(5 13)"/><ellipse class="b" cx="0.5" cy="1" rx="0.5" ry="1" transform="translate(5 17)"/><circle class="b" cx="1" cy="1" r="1" transform="translate(9 17)"/><ellipse class="b" cx="1" cy="0.5" rx="1" ry="0.5" transform="translate(9 9)"/></g></svg>