<svg xmlns="http://www.w3.org/2000/svg" width="24" height="24" viewBox="0 0 24 24"><defs><style>.a{opacity:0.4;}.b{fill:#fff;}</style></defs><g class="a"><path class="b" d="M21.475,6.315A1,1,0,0,0,21.01,7.65,9.9,9.9,0,0,1,22,12,10,10,0,1,1,12,2a9.88,9.88,0,0,1,6.208,2.157,1,1,0,1,0,1.244-1.565A12,12,0,1,0,24,12a11.878,11.878,0,0,0-1.19-5.22A1,1,0,0,0,21.475,6.315Zm0,0"/><path class="b" d="M177,64a1,1,0,0,0-1,1v7a1,1,0,0,0,1,1h5a1,1,0,0,0,0-2h-4V65A1,1,0,0,0,177,64Zm0,0" transform="translate(-165 -60)"/></g></svg>