<svg xmlns="http://www.w3.org/2000/svg" width="14" height="14" viewBox="0 0 14 14"><defs><style>.a{fill:#2ca5e4;}</style></defs><g transform="translate(5.091)"><path class="a" d="M194.455,0h-5.091a.636.636,0,1,0,0,1.273h3.555l-6.55,6.55a.636.636,0,1,0,.9.9l6.55-6.55V5.727a.636.636,0,1,0,1.273,0V.636A.636.636,0,0,0,194.455,0Z" transform="translate(-186.182)"/></g><g transform="translate(0 2.545)"><path class="a" d="M10.818,96.909a.636.636,0,0,0-.636.636v5.727H1.273V94.364H7a.636.636,0,1,0,0-1.273H.636A.636.636,0,0,0,0,93.727v10.182a.636.636,0,0,0,.636.636H10.818a.636.636,0,0,0,.636-.636V97.546A.636.636,0,0,0,10.818,96.909Z" transform="translate(0 -93.091)"/></g></svg>