<svg xmlns="http://www.w3.org/2000/svg" width="16.848" height="26.14" viewBox="0 0 16.848 26.14"><defs><style>.a{opacity:0.4;}.b{fill:#fff;}</style></defs><g class="a" transform="translate(-91)"><path class="b" d="M106.3,1.532h1.549V0H91V1.532h1.419c.239,5.614,3.015,8.71,5.859,11.574-2.832,2.852-5.6,5.934-5.855,11.5H91V26.14h16.848V24.609H106.3c-.26-5.569-3.023-8.652-5.855-11.5,2.844-2.864,5.619-5.96,5.859-11.574Zm-6.94,10.489a30.522,30.522,0,0,1-2.64-2.931A24.277,24.277,0,0,0,99.61,8.5a21.354,21.354,0,0,1,3.225-.615A24.034,24.034,0,0,1,99.359,12.021Zm5.407-10.489a13.037,13.037,0,0,1-1.076,4.75,21.867,21.867,0,0,0-4.452.736,20.863,20.863,0,0,1-3.494.641,12.719,12.719,0,0,1-1.792-6.127ZM96.479,24.609l2.359-2.791a.766.766,0,0,1,1.171,0l2.359,2.791Zm7.9,0-3.2-3.78a2.3,2.3,0,0,0-3.51,0l-3.2,3.78h-.518c.254-4.957,2.7-7.693,5.4-10.419,2.707,2.725,5.15,5.462,5.4,10.419Z"/><path class="b" d="M241,332h1.532v1.532H241Z" transform="translate(-142.342 -315.05)"/></g></svg>