<svg version="1" xmlns="http://www.w3.org/2000/svg" width="346.667" height="346.667" viewBox="0 0 260.000000 260.000000"><path d="M115.9 32c-9.2 1.6-15.3 6-20.7 14.8-3.7 6.1-5.4 13.1-4.2 17.3.9 2.9.9 2.9-3.8 2.9-7.1 0-17.1 2.7-22.2 6-6.9 4.4-13.6 11.9-16.7 18.5-2.4 5.2-2.8 7.2-2.8 15.5 0 8.6.3 10.1 3.1 16 6.7 13.8 20.9 23 35.8 23h5.2v11.7c0 10.2.4 12.9 2.7 20 6.6 19.6 23.7 35 44.3 39.9 9.4 2.2 25.5 1.5 34.1-1.6 37.9-13.3 53.5-57 32.2-90-7.6-11.8-18.9-20.6-32.2-25.1-11.4-3.9-31.2-3.5-41.3.7-4.3 1.8-4.1 2-4.7-2.4-.3-2-.8-4.4-1.2-5.3-.5-1.3.2-1.8 3.5-2.3 9.6-1.5 19.1-9.1 23.3-18.5 2.9-6.7 2.7-16.2-.5-23.2-6-13-19.9-20.3-33.9-17.9z"/></svg>